# xmcd
#
# Track frame offsets:
#	150
#	14395
#	29560
#	47010
#	60087
#	74355
#	99867
#	112547
#	138717
#	152937
#	168180
#	184382
#	203352
#	222222
#
# Disc length: 3346 seconds
#
# Revision: 4
# Processed by: cddbd v1.5.1PL2 Copyright (c) Steve Scherf et al.
# Submitted via: dBpowerAMP V4.0
#
DISCID=b40d100e
DTITLE=Billy Ocean - Emotions in Motion
DYEAR=1900
DGENRE=Blues
TTITLE0=Love Really Hurts Without You
TTITLE1=Emotions In Motion
TTITLE2=On The Run (The Battle is Over)
TTITLE3=Whose Little Girl Are You
TTITLE4=He Ain't As Black As He's Painted
TTITLE5=On The Run (The Battle is Over) (Extended Remix)
TTITLE6=What's Gonna Happen To Our Love
TTITLE7=Wild Beautiful Woman
TTITLE8=Light Up The World With Sunshine
TTITLE9=Can You Feel It
TTITLE10=Eye Of The Storm
TTITLE11=Hungry For Love
TTITLE12=Super Woman, Super Love
TTITLE13=On The Run (The Battle is Over) (Max Version)
EXTD=
EXTT0=
EXTT1=
EXTT2=
EXTT3=
EXTT4=
EXTT5=
EXTT6=
EXTT7=
EXTT8=
EXTT9=
EXTT10=
EXTT11=
EXTT12=
EXTT13=
PLAYORDER=
